<svg width="80" height="75" viewBox="0 0 80 75" fill="none" xmlns="http://www.w3.org/2000/svg">
<path d="M47.4051 15.4737C48.043 11.5541 45.3617 7.86298 41.4164 7.22931C37.4711 6.59564 33.7557 9.25939 33.1179 13.1789C32.4801 17.0985 35.1613 20.7896 39.1066 21.4233C43.0519 22.057 46.7673 19.3932 47.4051 15.4737Z" fill="#8E51FF" fill-opacity="0.3"/>
<path d="M5.6367 38.5736C5.11029 32.333 6.26539 27.8658 6.26539 27.8658C5.75035 56.3942 25.8805 73.7746 25.8805 73.7746L26.4158 72.9325C34.3998 60.3724 33.8704 53.8151 23.9525 42.4257L23.9214 42.39L23.8915 42.3538C23.1204 41.4237 22.1927 40.36 21.2104 39.2332C19.6558 37.451 18.049 35.6087 16.8108 34.0059C11.9757 27.8914 8.05994 18.9837 9.74922 10.5984C3.68003 17.5675 0 26.6464 0 36.5845C0 50.0901 6.78641 62.0126 17.1506 69.1939C9.31553 59.1802 6.35571 47.0997 5.6367 38.5736Z" fill="#8E51FF"/>
<path d="M74.3627 38.5736C74.8891 32.333 73.734 27.8658 73.734 27.8658C74.2491 56.3942 54.1189 73.7746 54.1189 73.7746L53.5836 72.9325C45.5996 60.3724 46.129 53.8151 56.0469 42.4257L56.078 42.39L56.1079 42.3538C56.879 41.4237 57.8068 40.36 58.7896 39.2332C60.3437 37.451 61.951 35.6087 63.1892 34.0059C68.0243 27.8914 71.9401 18.9837 70.2508 10.5984C76.32 17.5675 80 26.6464 80 36.5845C80 50.0901 73.2136 62.0126 62.8494 69.1939C70.6839 59.1802 73.6437 47.0997 74.3627 38.5736Z" fill="#8E51FF" fill-opacity="0.3"/>
<path d="M50.3055 75C39.5609 68.0731 34.4602 56.446 39.7542 44.2359C42.3688 37.8907 46.382 32.8394 50.4724 27.5978C54.3433 22.2059 59.0941 16.3184 59.0875 9.48056C59.0235 6.20667 57.5047 3.08134 55.9183 0C57.7535 0.6234 59.5086 1.5172 61.08 2.82283C70.1461 10.2359 66.0611 23.631 59.7377 31.343C57.8265 33.8259 54.7716 37.1746 52.7539 39.6177C41.7509 52.3805 41.1324 61.1574 50.3055 75Z" fill="#8E51FF"/>
<path d="M36.1603 42.7359C36.6592 41.5289 37.2167 40.379 37.7981 39.2534C35.4191 35.0946 32.506 31.3935 29.5444 27.5978C25.6729 22.2053 20.9233 16.3195 20.9299 9.48056C20.9921 6.20607 22.5133 3.07778 24.0985 0C22.2633 0.6234 20.5082 1.5172 18.9368 2.82283C9.87127 10.227 13.9563 23.6375 20.2785 31.3435C22.1999 33.8366 25.2368 37.1592 27.2629 39.6183C30.3753 43.2238 32.6555 46.5155 34.1193 49.6967C34.4902 47.376 35.1619 45.0447 36.1603 42.7359Z" fill="#8E51FF" fill-opacity="0.3"/>
<path d="M35.452 63.1078C34.529 66.7597 32.6118 70.6297 29.7112 75C32.9085 72.9343 35.5998 70.4573 37.6707 67.6785C36.7812 66.2058 36.0412 64.6779 35.452 63.1078Z" fill="#8E51FF" fill-opacity="0.3"/>
</svg>
